{"title":"IMAX Rocky Mountain Express 2011 BDRip 1080p Legendado PT-BR","uid":15874036,"size":7410242808,"categoryP":"video","categoryS":"hd___movies","magnet":"?xt=urn:btih:9244e2954cc6a0b250f4873cdfbfeb2297480ffe&amp;dn=IMAX+Rocky+Mountain+Express+2011+BDRip+1080p+Legendado+PT-BR&amp;tr=udp%3A%2F%2Ftracker.leechers-paradise.org%3A6969&amp;tr=udp%3A%2F%2Fzer0day.ch%3A1337&amp;tr=udp%3A%2F%2Fopen.demonii.com%3A1337&amp;tr=udp%3A%2F%2Ftracker.coppersurfer.tk%3A6969&amp;tr=udp%3A%2F%2Fexodus.desync.com%3A6969","seeders":16,"leechers":14,"uploader":null,"files":1,"time":1474474796,"description":"Audio: English\r\nLegendas/subtitles: Português / English (MKV track)\r\n\r\n=================================================\r\nIn &quot;Rocky Mountain Express&quot; we follow Canadian Pacific 2816 (The Empress), a restored steam engine from the 1930s, along the CPR line through the mountains from Vancouver to Calgary in summertime. The viewer is treated to close-ups of the train's operation and views of the stunning landscape, consisting mostly of pristine mountains, passes and river valleys.\r\nWhen blown up to IMAX proportions, those photos take on a life of their own.\r\n=================================================\r\nEm Rocky Moutain Express acompanhamos uma locomotiva a vapor de 1930 restaurada viajando pelas montanhas entre Vancouver e Calgary durante o verão. Vemos de perto a operação dos trens e paisagens deslumbrantes de montanhas virgens, passagens e vales.\r\n\r\nO filme apresenta fotografias aéreas do trem e do terreno montanhoso por onde ele passa. Recursos gráficos ajudam a entender o mapa geográfico por onde a linha foi construída. Destaque para a trilha sonora de &quot;500 miles&quot;.\r\n=================================================\r\nVideo\r\nID                             : 1\r\nFormat                         : AVC\r\nFormat/Info                    : Advanced Video Codec\r\nFormat profile                 :   \r\nFormat settings, CABAC         : Yes\r\nFormat settings, ReFrames      : 4 frames\r\nCodec ID                       : V_MPEG4/ISO/AVC\r\nDuration                       : 46mn 55s\r\nBit rate                       : 20.0 Mbps\r\nWidth                          : 1 920 pixels\r\nHeight                         : 1 080 pixels\r\nDisplay aspect ratio           : 16:9\r\nFrame rate mode                : Constant\r\nFrame rate                     : 23.976 fps\r\nColor space                    : YUV\r\nChroma subsampling             : 4:2:0\r\nBit depth                      : 8 bits\r\nScan type                      : Progressive\r\nBits/(Pixel*Frame)             : 0.402\r\nStream size                    : 6.55 GiB (95%)\r\nWriting library                : x264 core 148 r2705kMod 3f5ed56\r\n\r\nAudio\r\nID                             : 2\r\nFormat                         : AC-3\r\nFormat/Info                    : Audio Coding 3\r\nMode extension                 : CM (complete main)\r\nFormat settings, Endianness    : Big\r\nCodec ID                       : A_AC3\r\nDuration                       : 46mn 55s\r\nBit rate mode                  : Constant\r\nBit rate                       : 640 Kbps\r\nChannel(s)                     : 6 channels\r\nChannel positions              : Front: L C R, Side: L R, LFE\r\nSampling rate                  : 48.0 KHz\r\nBit depth                      : 16 bits\r\nCompression mode               : Lossy\r\nStream size                    : 215 MiB (3%)\r\nLanguage                       : English\r\nDefault                        : Yes\r\nForced                         : No\r\n\r\nText #1\r\nID                             : 3\r\nFormat                         : UTF-8\r\nCodec ID                       : S_TEXT/UTF8\r\nCodec ID/Info                  : UTF-8 Plain Text\r\nLanguage                       : Portuguese\r\nDefault                        : Yes\r\nForced                         : No","torrent":{"xt":"urn:btih:9244e2954cc6a0b250f4873cdfbfeb2297480ffe","amp;dn":"IMAX+Rocky+Mountain+Express+2011+BDRip+1080p+Legendado+PT-BR","amp;tr":["udp%3A%2F%2Ftracker.leechers-paradise.org%3A6969","udp%3A%2F%2Fzer0day.ch%3A1337","udp%3A%2F%2Fopen.demonii.com%3A1337","udp%3A%2F%2Ftracker.coppersurfer.tk%3A6969","udp%3A%2F%2Fexodus.desync.com%3A6969"],"infoHash":"9244e2954cc6a0b250f4873cdfbfeb2297480ffe","infoHashBuffer":{"type":"Buffer","data":[146,68,226,149,76,198,160,178,80,244,135,60,223,191,235,34,151,72,15,254]},"announce":[],"urlList":[]}}